<?xml version="1.0" standalone="no"?><svg xmlns="http://www.w3.org/2000/svg" width="500" height="500"><polygon points="1.6666666666666667,1.6666666666666667 34.77777777777778,1.6666666666666667 34.77777777777778,34.77777777777778 1.6666666666666667,34.77777777777778" fill="hsl(7, 100%, 50%)"></polygon><polygon points="1.6666666666666667,34.77777777777778 34.77777777777778,34.77777777777778 34.77777777777778,67.8888888888889 1.6666666666666667,67.8888888888889" fill="hsl(10, 100%, 50%)"></polygon><polygon points="1.6666666666666667,67.8888888888889 34.77777777777778,67.8888888888889 34.77777777777778,101.00000000000001 1.6666666666666667,101.00000000000001" fill="hsl(13, 100%, 50%)"></polygon><polygon points="1.6666666666666667,101.00000000000001 34.77777777777778,101.00000000000001 34.77777777777778,134.11111111111111 1.6666666666666667,134.11111111111111" fill="hsl(15, 100%, 50%)"></polygon><polygon points="1.6666666666666667,134.11111111111111 34.77777777777778,134.11111111111111 34.77777777777778,167.22222222222223 1.6666666666666667,167.22222222222223" fill="hsl(18, 100%, 50%)"></polygon><polygon points="1.6666666666666667,167.22222222222223 34.77777777777778,167.22222222222223 34.77777777777778,200.33333333333334 1.6666666666666667,200.33333333333334" fill="hsl(15, 100%, 50%)"></polygon><polygon points="1.6666666666666667,200.33333333333334 34.77777777777778,200.33333333333334 34.77777777777778,233.44444444444446 1.6666666666666667,233.44444444444446" fill="hsl(13, 100%, 50%)"></polygon><polygon points="1.6666666666666667,233.44444444444446 34.77777777777778,233.44444444444446 34.77777777777778,266.5555555555556 1.6666666666666667,266.5555555555556" fill="hsl(21, 100%, 50%)"></polygon><polygon points="1.6666666666666667,266.5555555555556 34.77777777777778,266.5555555555556 34.77777777777778,299.6666666666667 1.6666666666666667,299.6666666666667" fill="hsl(18, 100%, 50%)"></polygon><polygon points="1.6666666666666667,299.6666666666667 34.77777777777778,299.6666666666667 34.77777777777778,332.7777777777778 1.6666666666666667,332.7777777777778" fill="hsl(15, 100%, 50%)"></polygon><polygon points="34.77777777777778,1.6666666666666667 67.8888888888889,1.6666666666666667 67.8888888888889,34.77777777777778 34.77777777777778,34.77777777777778" fill="hsl(0, 100%, 50%)"></polygon><polygon points="34.77777777777778,34.77777777777778 67.8888888888889,34.77777777777778 67.8888888888889,67.8888888888889 34.77777777777778,67.8888888888889" fill="hsl(7, 100%, 50%)"></polygon><polygon points="34.77777777777778,67.8888888888889 67.8888888888889,67.8888888888889 67.8888888888889,101.00000000000001 34.77777777777778,101.00000000000001" fill="hsl(15, 100%, 50%)"></polygon><polygon points="34.77777777777778,101.00000000000001 67.8888888888889,101.00000000000001 67.8888888888889,134.11111111111111 34.77777777777778,134.11111111111111" fill="hsl(18, 100%, 50%)"></polygon><polygon points="34.77777777777778,134.11111111111111 67.8888888888889,134.11111111111111 67.8888888888889,167.22222222222223 34.77777777777778,167.22222222222223" fill="hsl(21, 100%, 50%)"></polygon><polygon points="34.77777777777778,167.22222222222223 67.8888888888889,167.22222222222223 67.8888888888889,200.33333333333334 34.77777777777778,200.33333333333334" fill="hsl(13, 100%, 50%)"></polygon><polygon points="34.77777777777778,200.33333333333334 67.8888888888889,200.33333333333334 67.8888888888889,233.44444444444446 34.77777777777778,233.44444444444446" fill="hsl(21, 100%, 50%)"></polygon><polygon points="34.77777777777778,233.44444444444446 67.8888888888889,233.44444444444446 67.8888888888889,266.5555555555556 34.77777777777778,266.5555555555556" fill="hsl(23, 100%, 50%)"></polygon><polygon points="34.77777777777778,266.5555555555556 67.8888888888889,266.5555555555556 67.8888888888889,299.6666666666667 34.77777777777778,299.6666666666667" fill="hsl(21, 100%, 50%)"></polygon><polygon points="34.77777777777778,299.6666666666667 67.8888888888889,299.6666666666667 67.8888888888889,332.7777777777778 34.77777777777778,332.7777777777778" fill="hsl(18, 100%, 50%)"></polygon><polygon points="67.8888888888889,1.6666666666666667 101.00000000000001,1.6666666666666667 101.00000000000001,34.77777777777778 67.8888888888889,34.77777777777778" fill="hsl(2, 100%, 50%)"></polygon><polygon points="67.8888888888889,34.77777777777778 101.00000000000001,34.77777777777778 101.00000000000001,67.8888888888889 67.8888888888889,67.8888888888889" fill="hsl(5, 100%, 50%)"></polygon><polygon points="67.8888888888889,67.8888888888889 101.00000000000001,67.8888888888889 101.00000000000001,101.00000000000001 67.8888888888889,101.00000000000001" fill="hsl(2, 100%, 50%)"></polygon><polygon points="67.8888888888889,101.00000000000001 101.00000000000001,101.00000000000001 101.00000000000001,134.11111111111111 67.8888888888889,134.11111111111111" fill="hsl(21, 100%, 50%)"></polygon><polygon points="67.8888888888889,134.11111111111111 101.00000000000001,134.11111111111111 101.00000000000001,167.22222222222223 67.8888888888889,167.22222222222223" fill="hsl(23, 100%, 50%)"></polygon><polygon points="67.8888888888889,167.22222222222223 101.00000000000001,167.22222222222223 101.00000000000001,200.33333333333334 67.8888888888889,200.33333333333334" fill="hsl(26, 100%, 50%)"></polygon><polygon points="67.8888888888889,200.33333333333334 101.00000000000001,200.33333333333334 101.00000000000001,233.44444444444446 67.8888888888889,233.44444444444446" fill="hsl(23, 100%, 50%)"></polygon><polygon points="67.8888888888889,233.44444444444446 101.00000000000001,233.44444444444446 101.00000000000001,266.5555555555556 67.8888888888889,266.5555555555556" fill="hsl(26, 100%, 50%)"></polygon><polygon points="67.8888888888889,266.5555555555556 101.00000000000001,266.5555555555556 101.00000000000001,299.6666666666667 67.8888888888889,299.6666666666667" fill="hsl(23, 100%, 50%)"></polygon><polygon points="67.8888888888889,299.6666666666667 101.00000000000001,299.6666666666667 101.00000000000001,332.7777777777778 67.8888888888889,332.7777777777778" fill="hsl(21, 100%, 50%)"></polygon><polygon points="101.00000000000001,1.6666666666666667 134.11111111111111,1.6666666666666667 134.11111111111111,34.77777777777778 101.00000000000001,34.77777777777778" fill="hsl(5, 100%, 50%)"></polygon><polygon points="101.00000000000001,34.77777777777778 134.11111111111111,34.77777777777778 134.11111111111111,67.8888888888889 101.00000000000001,67.8888888888889" fill="hsl(13, 100%, 50%)"></polygon><polygon points="101.00000000000001,67.8888888888889 134.11111111111111,67.8888888888889 134.11111111111111,101.00000000000001 101.00000000000001,101.00000000000001" fill="hsl(15, 100%, 50%)"></polygon><polygon points="101.00000000000001,101.00000000000001 134.11111111111111,101.00000000000001 134.11111111111111,134.11111111111111 101.00000000000001,134.11111111111111" fill="hsl(18, 100%, 50%)"></polygon><polygon points="101.00000000000001,134.11111111111111 134.11111111111111,134.11111111111111 134.11111111111111,167.22222222222223 101.00000000000001,167.22222222222223" fill="hsl(21, 100%, 50%)"></polygon><polygon points="101.00000000000001,167.22222222222223 134.11111111111111,167.22222222222223 134.11111111111111,200.33333333333334 101.00000000000001,200.33333333333334" fill="hsl(28, 100%, 50%)"></polygon><polygon points="101.00000000000001,200.33333333333334 134.11111111111111,200.33333333333334 134.11111111111111,233.44444444444446 101.00000000000001,233.44444444444446" fill="hsl(21, 100%, 50%)"></polygon><polygon points="101.00000000000001,233.44444444444446 134.11111111111111,233.44444444444446 134.11111111111111,266.5555555555556 101.00000000000001,266.5555555555556" fill="hsl(28, 100%, 50%)"></polygon><polygon points="101.00000000000001,266.5555555555556 134.11111111111111,266.5555555555556 134.11111111111111,299.6666666666667 101.00000000000001,299.6666666666667" fill="hsl(26, 100%, 50%)"></polygon><polygon points="101.00000000000001,299.6666666666667 134.11111111111111,299.6666666666667 134.11111111111111,332.7777777777778 101.00000000000001,332.7777777777778" fill="hsl(23, 100%, 50%)"></polygon><polygon points="134.11111111111111,1.6666666666666667 167.22222222222223,1.6666666666666667 167.22222222222223,34.77777777777778 134.11111111111111,34.77777777777778" fill="hsl(7, 100%, 50%)"></polygon><polygon points="134.11111111111111,34.77777777777778 167.22222222222223,34.77777777777778 167.22222222222223,67.8888888888889 134.11111111111111,67.8888888888889" fill="hsl(10, 100%, 50%)"></polygon><polygon points="134.11111111111111,67.8888888888889 167.22222222222223,67.8888888888889 167.22222222222223,101.00000000000001 134.11111111111111,101.00000000000001" fill="hsl(13, 100%, 50%)"></polygon><polygon points="134.11111111111111,101.00000000000001 167.22222222222223,101.00000000000001 167.22222222222223,134.11111111111111 134.11111111111111,134.11111111111111" fill="hsl(10, 100%, 50%)"></polygon><polygon points="134.11111111111111,134.11111111111111 167.22222222222223,134.11111111111111 167.22222222222223,167.22222222222223 134.11111111111111,167.22222222222223" fill="hsl(28, 100%, 50%)"></polygon><polygon points="134.11111111111111,167.22222222222223 167.22222222222223,167.22222222222223 167.22222222222223,200.33333333333334 134.11111111111111,200.33333333333334" fill="hsl(31, 100%, 50%)"></polygon><polygon points="134.11111111111111,200.33333333333334 167.22222222222223,200.33333333333334 167.22222222222223,233.44444444444446 134.11111111111111,233.44444444444446" fill="hsl(28, 100%, 50%)"></polygon><polygon points="134.11111111111111,233.44444444444446 167.22222222222223,233.44444444444446 167.22222222222223,266.5555555555556 134.11111111111111,266.5555555555556" fill="hsl(31, 100%, 50%)"></polygon><polygon points="134.11111111111111,266.5555555555556 167.22222222222223,266.5555555555556 167.22222222222223,299.6666666666667 134.11111111111111,299.6666666666667" fill="hsl(28, 100%, 50%)"></polygon><polygon points="134.11111111111111,299.6666666666667 167.22222222222223,299.6666666666667 167.22222222222223,332.7777777777778 134.11111111111111,332.7777777777778" fill="hsl(21, 100%, 50%)"></polygon><polygon points="167.22222222222223,1.6666666666666667 200.33333333333334,1.6666666666666667 200.33333333333334,34.77777777777778 167.22222222222223,34.77777777777778" fill="hsl(5, 100%, 50%)"></polygon><polygon points="167.22222222222223,34.77777777777778 200.33333333333334,34.77777777777778 200.33333333333334,67.8888888888889 167.22222222222223,67.8888888888889" fill="hsl(7, 100%, 50%)"></polygon><polygon points="167.22222222222223,67.8888888888889 200.33333333333334,67.8888888888889 200.33333333333334,101.00000000000001 167.22222222222223,101.00000000000001" fill="hsl(10, 100%, 50%)"></polygon><polygon points="167.22222222222223,101.00000000000001 200.33333333333334,101.00000000000001 200.33333333333334,134.11111111111111 167.22222222222223,134.11111111111111" fill="hsl(7, 100%, 50%)"></polygon><polygon points="167.22222222222223,134.11111111111111 200.33333333333334,134.11111111111111 200.33333333333334,167.22222222222223 167.22222222222223,167.22222222222223" fill="hsl(5, 100%, 50%)"></polygon><polygon points="167.22222222222223,167.22222222222223 200.33333333333334,167.22222222222223 200.33333333333334,200.33333333333334 167.22222222222223,200.33333333333334" fill="hsl(34, 100%, 50%)"></polygon><polygon points="167.22222222222223,200.33333333333334 200.33333333333334,200.33333333333334 200.33333333333334,233.44444444444446 167.22222222222223,233.44444444444446" fill="hsl(36, 100%, 50%)"></polygon><polygon points="167.22222222222223,233.44444444444446 200.33333333333334,233.44444444444446 200.33333333333334,266.5555555555556 167.22222222222223,266.5555555555556" fill="hsl(34, 100%, 50%)"></polygon><polygon points="167.22222222222223,266.5555555555556 200.33333333333334,266.5555555555556 200.33333333333334,299.6666666666667 167.22222222222223,299.6666666666667" fill="hsl(31, 100%, 50%)"></polygon><polygon points="167.22222222222223,299.6666666666667 200.33333333333334,299.6666666666667 200.33333333333334,332.7777777777778 167.22222222222223,332.7777777777778" fill="hsl(23, 100%, 50%)"></polygon><polygon points="200.33333333333334,1.6666666666666667 233.44444444444446,1.6666666666666667 233.44444444444446,34.77777777777778 200.33333333333334,34.77777777777778" fill="hsl(2, 100%, 50%)"></polygon><polygon points="200.33333333333334,34.77777777777778 233.44444444444446,34.77777777777778 233.44444444444446,67.8888888888889 200.33333333333334,67.8888888888889" fill="hsl(31, 100%, 50%)"></polygon><polygon points="200.33333333333334,67.8888888888889 233.44444444444446,67.8888888888889 233.44444444444446,101.00000000000001 200.33333333333334,101.00000000000001" fill="hsl(34, 100%, 50%)"></polygon><polygon points="200.33333333333334,101.00000000000001 233.44444444444446,101.00000000000001 233.44444444444446,134.11111111111111 200.33333333333334,134.11111111111111" fill="hsl(36, 100%, 50%)"></polygon><polygon points="200.33333333333334,134.11111111111111 233.44444444444446,134.11111111111111 233.44444444444446,167.22222222222223 200.33333333333334,167.22222222222223" fill="hsl(2, 100%, 50%)"></polygon><polygon points="200.33333333333334,167.22222222222223 233.44444444444446,167.22222222222223 233.44444444444446,200.33333333333334 200.33333333333334,200.33333333333334" fill="hsl(31, 100%, 50%)"></polygon><polygon points="200.33333333333334,200.33333333333334 233.44444444444446,200.33333333333334 233.44444444444446,233.44444444444446 200.33333333333334,233.44444444444446" fill="hsl(39, 100%, 50%)"></polygon><polygon points="200.33333333333334,233.44444444444446 233.44444444444446,233.44444444444446 233.44444444444446,266.5555555555556 200.33333333333334,266.5555555555556" fill="hsl(36, 100%, 50%)"></polygon><polygon points="200.33333333333334,266.5555555555556 233.44444444444446,266.5555555555556 233.44444444444446,299.6666666666667 200.33333333333334,299.6666666666667" fill="hsl(28, 100%, 50%)"></polygon><polygon points="200.33333333333334,299.6666666666667 233.44444444444446,299.6666666666667 233.44444444444446,332.7777777777778 200.33333333333334,332.7777777777778" fill="hsl(26, 100%, 50%)"></polygon><polygon points="233.44444444444446,1.6666666666666667 266.5555555555556,1.6666666666666667 266.5555555555556,34.77777777777778 233.44444444444446,34.77777777777778" fill="hsl(26, 100%, 50%)"></polygon><polygon points="233.44444444444446,34.77777777777778 266.5555555555556,34.77777777777778 266.5555555555556,67.8888888888889 233.44444444444446,67.8888888888889" fill="hsl(28, 100%, 50%)"></polygon><polygon points="233.44444444444446,67.8888888888889 266.5555555555556,67.8888888888889 266.5555555555556,101.00000000000001 233.44444444444446,101.00000000000001" fill="hsl(31, 100%, 50%)"></polygon><polygon points="233.44444444444446,101.00000000000001 266.5555555555556,101.00000000000001 266.5555555555556,134.11111111111111 233.44444444444446,134.11111111111111" fill="hsl(39, 100%, 50%)"></polygon><polygon points="233.44444444444446,134.11111111111111 266.5555555555556,134.11111111111111 266.5555555555556,167.22222222222223 233.44444444444446,167.22222222222223" fill="hsl(42, 100%, 50%)"></polygon><polygon points="233.44444444444446,167.22222222222223 266.5555555555556,167.22222222222223 266.5555555555556,200.33333333333334 233.44444444444446,200.33333333333334" fill="hsl(44, 100%, 50%)"></polygon><polygon points="233.44444444444446,200.33333333333334 266.5555555555556,200.33333333333334 266.5555555555556,233.44444444444446 233.44444444444446,233.44444444444446" fill="hsl(42, 100%, 50%)"></polygon><polygon points="233.44444444444446,233.44444444444446 266.5555555555556,233.44444444444446 266.5555555555556,266.5555555555556 233.44444444444446,266.5555555555556" fill="hsl(34, 100%, 50%)"></polygon><polygon points="233.44444444444446,266.5555555555556 266.5555555555556,266.5555555555556 266.5555555555556,299.6666666666667 233.44444444444446,299.6666666666667" fill="hsl(31, 100%, 50%)"></polygon><polygon points="233.44444444444446,299.6666666666667 266.5555555555556,299.6666666666667 266.5555555555556,332.7777777777778 233.44444444444446,332.7777777777778" fill="hsl(28, 100%, 50%)"></polygon><polygon points="266.5555555555556,1.6666666666666667 299.6666666666667,1.6666666666666667 299.6666666666667,34.77777777777778 266.5555555555556,34.77777777777778" fill="hsl(39, 100%, 50%)"></polygon><polygon points="266.5555555555556,34.77777777777778 299.6666666666667,34.77777777777778 299.6666666666667,67.8888888888889 266.5555555555556,67.8888888888889" fill="hsl(47, 100%, 50%)"></polygon><polygon points="266.5555555555556,67.8888888888889 299.6666666666667,67.8888888888889 299.6666666666667,101.00000000000001 266.5555555555556,101.00000000000001" fill="hsl(50, 100%, 50%)"></polygon><polygon points="266.5555555555556,101.00000000000001 299.6666666666667,101.00000000000001 299.6666666666667,134.11111111111111 266.5555555555556,134.11111111111111" fill="hsl(36, 100%, 50%)"></polygon><polygon points="266.5555555555556,134.11111111111111 299.6666666666667,134.11111111111111 299.6666666666667,167.22222222222223 266.5555555555556,167.22222222222223" fill="hsl(34, 100%, 50%)"></polygon><polygon points="266.5555555555556,167.22222222222223 299.6666666666667,167.22222222222223 299.6666666666667,200.33333333333334 266.5555555555556,200.33333333333334" fill="hsl(47, 100%, 50%)"></polygon><polygon points="266.5555555555556,200.33333333333334 299.6666666666667,200.33333333333334 299.6666666666667,233.44444444444446 266.5555555555556,233.44444444444446" fill="hsl(39, 100%, 50%)"></polygon><polygon points="266.5555555555556,233.44444444444446 299.6666666666667,233.44444444444446 299.6666666666667,266.5555555555556 266.5555555555556,266.5555555555556" fill="hsl(26, 100%, 50%)"></polygon><polygon points="266.5555555555556,266.5555555555556 299.6666666666667,266.5555555555556 299.6666666666667,299.6666666666667 266.5555555555556,299.6666666666667" fill="hsl(28, 100%, 50%)"></polygon><polygon points="266.5555555555556,299.6666666666667 299.6666666666667,299.6666666666667 299.6666666666667,332.7777777777778 266.5555555555556,332.7777777777778" fill="hsl(26, 100%, 50%)"></polygon><polygon points="299.6666666666667,1.6666666666666667 332.7777777777778,1.6666666666666667 332.7777777777778,34.77777777777778 299.6666666666667,34.77777777777778" fill="hsl(42, 100%, 50%)"></polygon><polygon points="299.6666666666667,34.77777777777778 332.7777777777778,34.77777777777778 332.7777777777778,67.8888888888889 299.6666666666667,67.8888888888889" fill="hsl(44, 100%, 50%)"></polygon><polygon points="299.6666666666667,67.8888888888889 332.7777777777778,67.8888888888889 332.7777777777778,101.00000000000001 299.6666666666667,101.00000000000001" fill="hsl(52, 100%, 50%)"></polygon><polygon points="299.6666666666667,101.00000000000001 332.7777777777778,101.00000000000001 332.7777777777778,134.11111111111111 299.6666666666667,134.11111111111111" fill="hsl(55, 100%, 50%)"></polygon><polygon points="299.6666666666667,134.11111111111111 332.7777777777778,134.11111111111111 332.7777777777778,167.22222222222223 299.6666666666667,167.22222222222223" fill="hsl(52, 100%, 50%)"></polygon><polygon points="299.6666666666667,167.22222222222223 332.7777777777778,167.22222222222223 332.7777777777778,200.33333333333334 299.6666666666667,200.33333333333334" fill="hsl(50, 100%, 50%)"></polygon><polygon points="299.6666666666667,200.33333333333334 332.7777777777778,200.33333333333334 332.7777777777778,233.44444444444446 299.6666666666667,233.44444444444446" fill="hsl(63, 100%, 50%)"></polygon><polygon points="299.6666666666667,233.44444444444446 332.7777777777778,233.44444444444446 332.7777777777778,266.5555555555556 299.6666666666667,266.5555555555556" fill="hsl(23, 100%, 50%)"></polygon><polygon points="299.6666666666667,266.5555555555556 332.7777777777778,266.5555555555556 332.7777777777778,299.6666666666667 299.6666666666667,299.6666666666667" fill="hsl(26, 100%, 50%)"></polygon><polygon points="299.6666666666667,299.6666666666667 332.7777777777778,299.6666666666667 332.7777777777778,332.7777777777778 299.6666666666667,332.7777777777778" fill="hsl(23, 100%, 50%)"></polygon><polygon points="332.7777777777778,1.6666666666666667 365.88888888888897,1.6666666666666667 365.88888888888897,34.77777777777778 332.7777777777778,34.77777777777778" fill="hsl(39, 100%, 50%)"></polygon><polygon points="332.7777777777778,34.77777777777778 365.88888888888897,34.77777777777778 365.88888888888897,67.8888888888889 332.7777777777778,67.8888888888889" fill="hsl(52, 100%, 50%)"></polygon><polygon points="332.7777777777778,67.8888888888889 365.88888888888897,67.8888888888889 365.88888888888897,101.00000000000001 332.7777777777778,101.00000000000001" fill="hsl(55, 100%, 50%)"></polygon><polygon points="332.7777777777778,101.00000000000001 365.88888888888897,101.00000000000001 365.88888888888897,134.11111111111111 332.7777777777778,134.11111111111111" fill="hsl(57, 100%, 50%)"></polygon><polygon points="332.7777777777778,134.11111111111111 365.88888888888897,134.11111111111111 365.88888888888897,167.22222222222223 332.7777777777778,167.22222222222223" fill="hsl(60, 100%, 50%)"></polygon><polygon points="332.7777777777778,167.22222222222223 365.88888888888897,167.22222222222223 365.88888888888897,200.33333333333334 332.7777777777778,200.33333333333334" fill="hsl(47, 100%, 50%)"></polygon><polygon points="332.7777777777778,200.33333333333334 365.88888888888897,200.33333333333334 365.88888888888897,233.44444444444446 332.7777777777778,233.44444444444446" fill="hsl(65, 100%, 50%)"></polygon><polygon points="332.7777777777778,233.44444444444446 365.88888888888897,233.44444444444446 365.88888888888897,266.5555555555556 332.7777777777778,266.5555555555556" fill="hsl(63, 100%, 50%)"></polygon><polygon points="332.7777777777778,266.5555555555556 365.88888888888897,266.5555555555556 365.88888888888897,299.6666666666667 332.7777777777778,299.6666666666667" fill="hsl(23, 100%, 50%)"></polygon><polygon points="332.7777777777778,299.6666666666667 365.88888888888897,299.6666666666667 365.88888888888897,332.7777777777778 332.7777777777778,332.7777777777778" fill="hsl(100, 100%, 50%)"></polygon><polygon points="365.88888888888897,1.6666666666666667 399.00000000000006,1.6666666666666667 399.00000000000006,34.77777777777778 365.88888888888897,34.77777777777778" fill="hsl(47, 100%, 50%)"></polygon><polygon points="365.88888888888897,34.77777777777778 399.00000000000006,34.77777777777778 399.00000000000006,67.8888888888889 365.88888888888897,67.8888888888889" fill="hsl(55, 100%, 50%)"></polygon><polygon points="365.88888888888897,67.8888888888889 399.00000000000006,67.8888888888889 399.00000000000006,101.00000000000001 365.88888888888897,101.00000000000001" fill="hsl(57, 100%, 50%)"></polygon><polygon points="365.88888888888897,101.00000000000001 399.00000000000006,101.00000000000001 399.00000000000006,134.11111111111111 365.88888888888897,134.11111111111111" fill="hsl(60, 100%, 50%)"></polygon><polygon points="365.88888888888897,134.11111111111111 399.00000000000006,134.11111111111111 399.00000000000006,167.22222222222223 365.88888888888897,167.22222222222223" fill="hsl(63, 100%, 50%)"></polygon><polygon points="365.88888888888897,167.22222222222223 399.00000000000006,167.22222222222223 399.00000000000006,200.33333333333334 365.88888888888897,200.33333333333334" fill="hsl(65, 100%, 50%)"></polygon><polygon points="365.88888888888897,200.33333333333334 399.00000000000006,200.33333333333334 399.00000000000006,233.44444444444446 365.88888888888897,233.44444444444446" fill="hsl(68, 100%, 50%)"></polygon><polygon points="365.88888888888897,233.44444444444446 399.00000000000006,233.44444444444446 399.00000000000006,266.5555555555556 365.88888888888897,266.5555555555556" fill="hsl(65, 100%, 50%)"></polygon><polygon points="365.88888888888897,266.5555555555556 399.00000000000006,266.5555555555556 399.00000000000006,299.6666666666667 365.88888888888897,299.6666666666667" fill="hsl(84, 100%, 50%)"></polygon><polygon points="365.88888888888897,299.6666666666667 399.00000000000006,299.6666666666667 399.00000000000006,332.7777777777778 365.88888888888897,332.7777777777778" fill="hsl(97, 100%, 50%)"></polygon><polygon points="399.00000000000006,1.6666666666666667 432.11111111111114,1.6666666666666667 432.11111111111114,34.77777777777778 399.00000000000006,34.77777777777778" fill="hsl(50, 100%, 50%)"></polygon><polygon points="399.00000000000006,34.77777777777778 432.11111111111114,34.77777777777778 432.11111111111114,67.8888888888889 399.00000000000006,67.8888888888889" fill="hsl(52, 100%, 50%)"></polygon><polygon points="399.00000000000006,67.8888888888889 432.11111111111114,67.8888888888889 432.11111111111114,101.00000000000001 399.00000000000006,101.00000000000001" fill="hsl(55, 100%, 50%)"></polygon><polygon points="399.00000000000006,101.00000000000001 432.11111111111114,101.00000000000001 432.11111111111114,134.11111111111111 399.00000000000006,134.11111111111111" fill="hsl(57, 100%, 50%)"></polygon><polygon points="399.00000000000006,134.11111111111111 432.11111111111114,134.11111111111111 432.11111111111114,167.22222222222223 399.00000000000006,167.22222222222223" fill="hsl(60, 100%, 50%)"></polygon><polygon points="399.00000000000006,167.22222222222223 432.11111111111114,167.22222222222223 432.11111111111114,200.33333333333334 399.00000000000006,200.33333333333334" fill="hsl(73, 100%, 50%)"></polygon><polygon points="399.00000000000006,200.33333333333334 432.11111111111114,200.33333333333334 432.11111111111114,233.44444444444446 399.00000000000006,233.44444444444446" fill="hsl(71, 100%, 50%)"></polygon><polygon points="399.00000000000006,233.44444444444446 432.11111111111114,233.44444444444446 432.11111111111114,266.5555555555556 399.00000000000006,266.5555555555556" fill="hsl(63, 100%, 50%)"></polygon><polygon points="399.00000000000006,266.5555555555556 432.11111111111114,266.5555555555556 432.11111111111114,299.6666666666667 399.00000000000006,299.6666666666667" fill="hsl(86, 100%, 50%)"></polygon><polygon points="399.00000000000006,299.6666666666667 432.11111111111114,299.6666666666667 432.11111111111114,332.7777777777778 399.00000000000006,332.7777777777778" fill="hsl(94, 100%, 50%)"></polygon><polygon points="432.11111111111114,1.6666666666666667 465.2222222222223,1.6666666666666667 465.2222222222223,34.77777777777778 432.11111111111114,34.77777777777778" fill="hsl(47, 100%, 50%)"></polygon><polygon points="432.11111111111114,34.77777777777778 465.2222222222223,34.77777777777778 465.2222222222223,67.8888888888889 432.11111111111114,67.8888888888889" fill="hsl(44, 100%, 50%)"></polygon><polygon points="432.11111111111114,67.8888888888889 465.2222222222223,67.8888888888889 465.2222222222223,101.00000000000001 432.11111111111114,101.00000000000001" fill="hsl(52, 100%, 50%)"></polygon><polygon points="432.11111111111114,101.00000000000001 465.2222222222223,101.00000000000001 465.2222222222223,134.11111111111111 432.11111111111114,134.11111111111111" fill="hsl(55, 100%, 50%)"></polygon><polygon points="432.11111111111114,134.11111111111111 465.2222222222223,134.11111111111111 465.2222222222223,167.22222222222223 432.11111111111114,167.22222222222223" fill="hsl(57, 100%, 50%)"></polygon><polygon points="432.11111111111114,167.22222222222223 465.2222222222223,167.22222222222223 465.2222222222223,200.33333333333334 432.11111111111114,200.33333333333334" fill="hsl(76, 100%, 50%)"></polygon><polygon points="432.11111111111114,200.33333333333334 465.2222222222223,200.33333333333334 465.2222222222223,233.44444444444446 432.11111111111114,233.44444444444446" fill="hsl(78, 100%, 50%)"></polygon><polygon points="432.11111111111114,233.44444444444446 465.2222222222223,233.44444444444446 465.2222222222223,266.5555555555556 432.11111111111114,266.5555555555556" fill="hsl(81, 100%, 50%)"></polygon><polygon points="432.11111111111114,266.5555555555556 465.2222222222223,266.5555555555556 465.2222222222223,299.6666666666667 432.11111111111114,299.6666666666667" fill="hsl(89, 100%, 50%)"></polygon><polygon points="432.11111111111114,299.6666666666667 465.2222222222223,299.6666666666667 465.2222222222223,332.7777777777778 432.11111111111114,332.7777777777778" fill="hsl(92, 100%, 50%)"></polygon><polygon points="465.2222222222223,1.6666666666666667 498.3333333333334,1.6666666666666667 498.3333333333334,34.77777777777778 465.2222222222223,34.77777777777778" fill="hsl(39, 100%, 50%)"></polygon><polygon points="465.2222222222223,34.77777777777778 498.3333333333334,34.77777777777778 498.3333333333334,67.8888888888889 465.2222222222223,67.8888888888889" fill="hsl(42, 100%, 50%)"></polygon><polygon points="465.2222222222223,67.8888888888889 498.3333333333334,67.8888888888889 498.3333333333334,101.00000000000001 465.2222222222223,101.00000000000001" fill="hsl(50, 100%, 50%)"></polygon><polygon points="465.2222222222223,101.00000000000001 498.3333333333334,101.00000000000001 498.3333333333334,134.11111111111111 465.2222222222223,134.11111111111111" fill="hsl(52, 100%, 50%)"></polygon><polygon points="465.2222222222223,134.11111111111111 498.3333333333334,134.11111111111111 498.3333333333334,167.22222222222223 465.2222222222223,167.22222222222223" fill="hsl(71, 100%, 50%)"></polygon><polygon points="465.2222222222223,167.22222222222223 498.3333333333334,167.22222222222223 498.3333333333334,200.33333333333334 465.2222222222223,200.33333333333334" fill="hsl(73, 100%, 50%)"></polygon><polygon points="465.2222222222223,200.33333333333334 498.3333333333334,200.33333333333334 498.3333333333334,233.44444444444446 465.2222222222223,233.44444444444446" fill="hsl(81, 100%, 50%)"></polygon><polygon points="465.2222222222223,233.44444444444446 498.3333333333334,233.44444444444446 498.3333333333334,266.5555555555556 465.2222222222223,266.5555555555556" fill="hsl(84, 100%, 50%)"></polygon><polygon points="465.2222222222223,266.5555555555556 498.3333333333334,266.5555555555556 498.3333333333334,299.6666666666667 465.2222222222223,299.6666666666667" fill="hsl(86, 100%, 50%)"></polygon><polygon points="465.2222222222223,299.6666666666667 498.3333333333334,299.6666666666667 498.3333333333334,332.7777777777778 465.2222222222223,332.7777777777778" fill="hsl(89, 100%, 50%)"></polygon><line x1="1.6666666666666667" y1="1.6666666666666667" x2="34.77777777777778" y2="1.6666666666666667" stroke="black" stroke-width="3.3333333333333335" stroke-linecap="round"></line><line x1="34.77777777777778" y1="1.6666666666666667" x2="34.77777777777778" y2="34.77777777777778" stroke="black" stroke-width="3.3333333333333335" stroke-linecap="round"></line><line x1="1.6666666666666667" y1="1.6666666666666667" x2="1.6666666666666667" y2="34.77777777777778" stroke="black" stroke-width="3.3333333333333335" stroke-linecap="round"></line><line x1="1.6666666666666667" y1="34.77777777777778" x2="1.6666666666666667" y2="67.8888888888889" stroke="black" stroke-width="3.3333333333333335" stroke-linecap="round"></line><line x1="1.6666666666666667" y1="101.00000000000001" x2="34.77777777777778" y2="101.00000000000001" stroke="black" stroke-width="3.3333333333333335" stroke-linecap="round"></line><line x1="1.6666666666666667" y1="67.8888888888889" x2="1.6666666666666667" y2="101.00000000000001" stroke="black" stroke-width="3.3333333333333335" stroke-linecap="round"></line><line x1="1.6666666666666667" y1="101.00000000000001" x2="34.77777777777778" y2="101.00000000000001" stroke="black" stroke-width="3.3333333333333335" stroke-linecap="round"></line><line x1="1.6666666666666667" y1="134.11111111111111" x2="34.77777777777778" y2="134.11111111111111" stroke="black" stroke-width="3.3333333333333335" stroke-linecap="round"></line><line x1="1.6666666666666667" y1="101.00000000000001" x2="1.6666666666666667" y2="134.11111111111111" stroke="black" stroke-width="3.3333333333333335" stroke-linecap="round"></line><line x1="1.6666666666666667" y1="134.11111111111111" x2="34.77777777777778" y2="134.11111111111111" stroke="black" stroke-width="3.3333333333333335" stroke-linecap="round"></line><line x1="1.6666666666666667" y1="134.11111111111111" x2="1.6666666666666667" y2="167.22222222222223" stroke="black" stroke-width="3.3333333333333335" stroke-linecap="round"></line><line x1="1.6666666666666667" y1="167.22222222222223" x2="1.6666666666666667" y2="200.33333333333334" stroke="black" stroke-width="3.3333333333333335" stroke-linecap="round"></line><line x1="1.6666666666666667" y1="233.44444444444446" x2="34.77777777777778" y2="233.44444444444446" stroke="black" stroke-width="3.3333333333333335" stroke-linecap="round"></line><line x1="34.77777777777778" y1="200.33333333333334" x2="34.77777777777778" y2="233.44444444444446" stroke="black" stroke-width="3.3333333333333335" stroke-linecap="round"></line><line x1="1.6666666666666667" y1="200.33333333333334" x2="1.6666666666666667" y2="233.44444444444446" stroke="black" stroke-width="3.3333333333333335" stroke-linecap="round"></line><line x1="1.6666666666666667" y1="233.44444444444446" x2="34.77777777777778" y2="233.44444444444446" stroke="black" stroke-width="3.3333333333333335" stroke-linecap="round"></line><line x1="1.6666666666666667" y1="266.5555555555556" x2="34.77777777777778" y2="266.5555555555556" stroke="black" stroke-width="3.3333333333333335" stroke-linecap="round"></line><line x1="1.6666666666666667" y1="233.44444444444446" x2="1.6666666666666667" y2="266.5555555555556" stroke="black" stroke-width="3.3333333333333335" stroke-linecap="round"></line><line x1="1.6666666666666667" y1="266.5555555555556" x2="34.77777777777778" y2="266.5555555555556" stroke="black" stroke-width="3.3333333333333335" stroke-linecap="round"></line><line x1="1.6666666666666667" y1="299.6666666666667" x2="34.77777777777778" y2="299.6666666666667" stroke="black" stroke-width="3.3333333333333335" stroke-linecap="round"></line><line x1="1.6666666666666667" y1="266.5555555555556" x2="1.6666666666666667" y2="299.6666666666667" stroke="black" stroke-width="3.3333333333333335" stroke-linecap="round"></line><line x1="1.6666666666666667" y1="299.6666666666667" x2="34.77777777777778" y2="299.6666666666667" stroke="black" stroke-width="3.3333333333333335" stroke-linecap="round"></line><line x1="1.6666666666666667" y1="332.7777777777778" x2="34.77777777777778" y2="332.7777777777778" stroke="black" stroke-width="3.3333333333333335" stroke-linecap="round"></line><line x1="1.6666666666666667" y1="299.6666666666667" x2="1.6666666666666667" y2="332.7777777777778" stroke="black" stroke-width="3.3333333333333335" stroke-linecap="round"></line><line x1="34.77777777777778" y1="34.77777777777778" x2="67.8888888888889" y2="34.77777777777778" stroke="black" stroke-width="3.3333333333333335" stroke-linecap="round"></line><line x1="34.77777777777778" y1="1.6666666666666667" x2="34.77777777777778" y2="34.77777777777778" stroke="black" stroke-width="3.3333333333333335" stroke-linecap="round"></line><line x1="34.77777777777778" y1="34.77777777777778" x2="67.8888888888889" y2="34.77777777777778" stroke="black" stroke-width="3.3333333333333335" stroke-linecap="round"></line><line x1="34.77777777777778" y1="67.8888888888889" x2="67.8888888888889" y2="67.8888888888889" stroke="black" stroke-width="3.3333333333333335" stroke-linecap="round"></line><line x1="34.77777777777778" y1="67.8888888888889" x2="67.8888888888889" y2="67.8888888888889" stroke="black" stroke-width="3.3333333333333335" stroke-linecap="round"></line><line x1="67.8888888888889" y1="67.8888888888889" x2="67.8888888888889" y2="101.00000000000001" stroke="black" stroke-width="3.3333333333333335" stroke-linecap="round"></line><line x1="67.8888888888889" y1="101.00000000000001" x2="67.8888888888889" y2="134.11111111111111" stroke="black" stroke-width="3.3333333333333335" stroke-linecap="round"></line><line x1="34.77777777777778" y1="167.22222222222223" x2="67.8888888888889" y2="167.22222222222223" stroke="black" stroke-width="3.3333333333333335" stroke-linecap="round"></line><line x1="34.77777777777778" y1="167.22222222222223" x2="67.8888888888889" y2="167.22222222222223" stroke="black" stroke-width="3.3333333333333335" stroke-linecap="round"></line><line x1="34.77777777777778" y1="200.33333333333334" x2="67.8888888888889" y2="200.33333333333334" stroke="black" stroke-width="3.3333333333333335" stroke-linecap="round"></line><line x1="67.8888888888889" y1="167.22222222222223" x2="67.8888888888889" y2="200.33333333333334" stroke="black" stroke-width="3.3333333333333335" stroke-linecap="round"></line><line x1="34.77777777777778" y1="200.33333333333334" x2="67.8888888888889" y2="200.33333333333334" stroke="black" stroke-width="3.3333333333333335" stroke-linecap="round"></line><line x1="34.77777777777778" y1="233.44444444444446" x2="67.8888888888889" y2="233.44444444444446" stroke="black" stroke-width="3.3333333333333335" stroke-linecap="round"></line><line x1="34.77777777777778" y1="200.33333333333334" x2="34.77777777777778" y2="233.44444444444446" stroke="black" stroke-width="3.3333333333333335" stroke-linecap="round"></line><line x1="34.77777777777778" y1="233.44444444444446" x2="67.8888888888889" y2="233.44444444444446" stroke="black" stroke-width="3.3333333333333335" stroke-linecap="round"></line><line x1="34.77777777777778" y1="299.6666666666667" x2="67.8888888888889" y2="299.6666666666667" stroke="black" stroke-width="3.3333333333333335" stroke-linecap="round"></line><line x1="67.8888888888889" y1="266.5555555555556" x2="67.8888888888889" y2="299.6666666666667" stroke="black" stroke-width="3.3333333333333335" stroke-linecap="round"></line><line x1="34.77777777777778" y1="299.6666666666667" x2="67.8888888888889" y2="299.6666666666667" stroke="black" stroke-width="3.3333333333333335" stroke-linecap="round"></line><line x1="34.77777777777778" y1="332.7777777777778" x2="67.8888888888889" y2="332.7777777777778" stroke="black" stroke-width="3.3333333333333335" stroke-linecap="round"></line><line x1="67.8888888888889" y1="1.6666666666666667" x2="101.00000000000001" y2="1.6666666666666667" stroke="black" stroke-width="3.3333333333333335" stroke-linecap="round"></line><line x1="101.00000000000001" y1="1.6666666666666667" x2="101.00000000000001" y2="34.77777777777778" stroke="black" stroke-width="3.3333333333333335" stroke-linecap="round"></line><line x1="101.00000000000001" y1="34.77777777777778" x2="101.00000000000001" y2="67.8888888888889" stroke="black" stroke-width="3.3333333333333335" stroke-linecap="round"></line><line x1="67.8888888888889" y1="101.00000000000001" x2="101.00000000000001" y2="101.00000000000001" stroke="black" stroke-width="3.3333333333333335" stroke-linecap="round"></line><line x1="101.00000000000001" y1="67.8888888888889" x2="101.00000000000001" y2="101.00000000000001" stroke="black" stroke-width="3.3333333333333335" stroke-linecap="round"></line><line x1="67.8888888888889" y1="67.8888888888889" x2="67.8888888888889" y2="101.00000000000001" stroke="black" stroke-width="3.3333333333333335" stroke-linecap="round"></line><line x1="67.8888888888889" y1="101.00000000000001" x2="101.00000000000001" y2="101.00000000000001" stroke="black" stroke-width="3.3333333333333335" stroke-linecap="round"></line><line x1="67.8888888888889" y1="101.00000000000001" x2="67.8888888888889" y2="134.11111111111111" stroke="black" stroke-width="3.3333333333333335" stroke-linecap="round"></line><line x1="67.8888888888889" y1="200.33333333333334" x2="101.00000000000001" y2="200.33333333333334" stroke="black" stroke-width="3.3333333333333335" stroke-linecap="round"></line><line x1="67.8888888888889" y1="167.22222222222223" x2="67.8888888888889" y2="200.33333333333334" stroke="black" stroke-width="3.3333333333333335" stroke-linecap="round"></line><line x1="67.8888888888889" y1="200.33333333333334" x2="101.00000000000001" y2="200.33333333333334" stroke="black" stroke-width="3.3333333333333335" stroke-linecap="round"></line><line x1="67.8888888888889" y1="299.6666666666667" x2="101.00000000000001" y2="299.6666666666667" stroke="black" stroke-width="3.3333333333333335" stroke-linecap="round"></line><line x1="101.00000000000001" y1="266.5555555555556" x2="101.00000000000001" y2="299.6666666666667" stroke="black" stroke-width="3.3333333333333335" stroke-linecap="round"></line><line x1="67.8888888888889" y1="266.5555555555556" x2="67.8888888888889" y2="299.6666666666667" stroke="black" stroke-width="3.3333333333333335" stroke-linecap="round"></line><line x1="67.8888888888889" y1="299.6666666666667" x2="101.00000000000001" y2="299.6666666666667" stroke="black" stroke-width="3.3333333333333335" stroke-linecap="round"></line><line x1="67.8888888888889" y1="332.7777777777778" x2="101.00000000000001" y2="332.7777777777778" stroke="black" stroke-width="3.3333333333333335" stroke-linecap="round"></line><line x1="101.00000000000001" y1="1.6666666666666667" x2="134.11111111111111" y2="1.6666666666666667" stroke="black" stroke-width="3.3333333333333335" stroke-linecap="round"></line><line x1="101.00000000000001" y1="34.77777777777778" x2="134.11111111111111" y2="34.77777777777778" stroke="black" stroke-width="3.3333333333333335" stroke-linecap="round"></line><line x1="101.00000000000001" y1="1.6666666666666667" x2="101.00000000000001" y2="34.77777777777778" stroke="black" stroke-width="3.3333333333333335" stroke-linecap="round"></line><line x1="101.00000000000001" y1="34.77777777777778" x2="134.11111111111111" y2="34.77777777777778" stroke="black" stroke-width="3.3333333333333335" stroke-linecap="round"></line><line x1="134.11111111111111" y1="34.77777777777778" x2="134.11111111111111" y2="67.8888888888889" stroke="black" stroke-width="3.3333333333333335" stroke-linecap="round"></line><line x1="101.00000000000001" y1="34.77777777777778" x2="101.00000000000001" y2="67.8888888888889" stroke="black" stroke-width="3.3333333333333335" stroke-linecap="round"></line><line x1="101.00000000000001" y1="67.8888888888889" x2="101.00000000000001" y2="101.00000000000001" stroke="black" stroke-width="3.3333333333333335" stroke-linecap="round"></line><line x1="101.00000000000001" y1="134.11111111111111" x2="134.11111111111111" y2="134.11111111111111" stroke="black" stroke-width="3.3333333333333335" stroke-linecap="round"></line><line x1="134.11111111111111" y1="101.00000000000001" x2="134.11111111111111" y2="134.11111111111111" stroke="black" stroke-width="3.3333333333333335" stroke-linecap="round"></line><line x1="101.00000000000001" y1="134.11111111111111" x2="134.11111111111111" y2="134.11111111111111" stroke="black" stroke-width="3.3333333333333335" stroke-linecap="round"></line><line x1="101.00000000000001" y1="167.22222222222223" x2="134.11111111111111" y2="167.22222222222223" stroke="black" stroke-width="3.3333333333333335" stroke-linecap="round"></line><line x1="134.11111111111111" y1="134.11111111111111" x2="134.11111111111111" y2="167.22222222222223" stroke="black" stroke-width="3.3333333333333335" stroke-linecap="round"></line><line x1="101.00000000000001" y1="167.22222222222223" x2="134.11111111111111" y2="167.22222222222223" stroke="black" stroke-width="3.3333333333333335" stroke-linecap="round"></line><line x1="101.00000000000001" y1="200.33333333333334" x2="134.11111111111111" y2="200.33333333333334" stroke="black" stroke-width="3.3333333333333335" stroke-linecap="round"></line><line x1="101.00000000000001" y1="200.33333333333334" x2="134.11111111111111" y2="200.33333333333334" stroke="black" stroke-width="3.3333333333333335" stroke-linecap="round"></line><line x1="101.00000000000001" y1="233.44444444444446" x2="134.11111111111111" y2="233.44444444444446" stroke="black" stroke-width="3.3333333333333335" stroke-linecap="round"></line><line x1="134.11111111111111" y1="200.33333333333334" x2="134.11111111111111" y2="233.44444444444446" stroke="black" stroke-width="3.3333333333333335" stroke-linecap="round"></line><line x1="101.00000000000001" y1="233.44444444444446" x2="134.11111111111111" y2="233.44444444444446" stroke="black" stroke-width="3.3333333333333335" stroke-linecap="round"></line><line x1="134.11111111111111" y1="266.5555555555556" x2="134.11111111111111" y2="299.6666666666667" stroke="black" stroke-width="3.3333333333333335" stroke-linecap="round"></line><line x1="101.00000000000001" y1="266.5555555555556" x2="101.00000000000001" y2="299.6666666666667" stroke="black" stroke-width="3.3333333333333335" stroke-linecap="round"></line><line x1="101.00000000000001" y1="332.7777777777778" x2="134.11111111111111" y2="332.7777777777778" stroke="black" stroke-width="3.3333333333333335" stroke-linecap="round"></line><line x1="134.11111111111111" y1="1.6666666666666667" x2="167.22222222222223" y2="1.6666666666666667" stroke="black" stroke-width="3.3333333333333335" stroke-linecap="round"></line><line x1="167.22222222222223" y1="34.77777777777778" x2="167.22222222222223" y2="67.8888888888889" stroke="black" stroke-width="3.3333333333333335" stroke-linecap="round"></line><line x1="134.11111111111111" y1="34.77777777777778" x2="134.11111111111111" y2="67.8888888888889" stroke="black" stroke-width="3.3333333333333335" stroke-linecap="round"></line><line x1="134.11111111111111" y1="134.11111111111111" x2="167.22222222222223" y2="134.11111111111111" stroke="black" stroke-width="3.3333333333333335" stroke-linecap="round"></line><line x1="167.22222222222223" y1="101.00000000000001" x2="167.22222222222223" y2="134.11111111111111" stroke="black" stroke-width="3.3333333333333335" stroke-linecap="round"></line><line x1="134.11111111111111" y1="101.00000000000001" x2="134.11111111111111" y2="134.11111111111111" stroke="black" stroke-width="3.3333333333333335" stroke-linecap="round"></line><line x1="134.11111111111111" y1="134.11111111111111" x2="167.22222222222223" y2="134.11111111111111" stroke="black" stroke-width="3.3333333333333335" stroke-linecap="round"></line><line x1="167.22222222222223" y1="134.11111111111111" x2="167.22222222222223" y2="167.22222222222223" stroke="black" stroke-width="3.3333333333333335" stroke-linecap="round"></line><line x1="134.11111111111111" y1="134.11111111111111" x2="134.11111111111111" y2="167.22222222222223" stroke="black" stroke-width="3.3333333333333335" stroke-linecap="round"></line><line x1="134.11111111111111" y1="200.33333333333334" x2="167.22222222222223" y2="200.33333333333334" stroke="black" stroke-width="3.3333333333333335" stroke-linecap="round"></line><line x1="134.11111111111111" y1="200.33333333333334" x2="167.22222222222223" y2="200.33333333333334" stroke="black" stroke-width="3.3333333333333335" stroke-linecap="round"></line><line x1="167.22222222222223" y1="200.33333333333334" x2="167.22222222222223" y2="233.44444444444446" stroke="black" stroke-width="3.3333333333333335" stroke-linecap="round"></line><line x1="134.11111111111111" y1="200.33333333333334" x2="134.11111111111111" y2="233.44444444444446" stroke="black" stroke-width="3.3333333333333335" stroke-linecap="round"></line><line x1="134.11111111111111" y1="266.5555555555556" x2="167.22222222222223" y2="266.5555555555556" stroke="black" stroke-width="3.3333333333333335" stroke-linecap="round"></line><line x1="134.11111111111111" y1="266.5555555555556" x2="167.22222222222223" y2="266.5555555555556" stroke="black" stroke-width="3.3333333333333335" stroke-linecap="round"></line><line x1="134.11111111111111" y1="299.6666666666667" x2="167.22222222222223" y2="299.6666666666667" stroke="black" stroke-width="3.3333333333333335" stroke-linecap="round"></line><line x1="134.11111111111111" y1="266.5555555555556" x2="134.11111111111111" y2="299.6666666666667" stroke="black" stroke-width="3.3333333333333335" stroke-linecap="round"></line><line x1="134.11111111111111" y1="299.6666666666667" x2="167.22222222222223" y2="299.6666666666667" stroke="black" stroke-width="3.3333333333333335" stroke-linecap="round"></line><line x1="134.11111111111111" y1="332.7777777777778" x2="167.22222222222223" y2="332.7777777777778" stroke="black" stroke-width="3.3333333333333335" stroke-linecap="round"></line><line x1="167.22222222222223" y1="299.6666666666667" x2="167.22222222222223" y2="332.7777777777778" stroke="black" stroke-width="3.3333333333333335" stroke-linecap="round"></line><line x1="167.22222222222223" y1="1.6666666666666667" x2="200.33333333333334" y2="1.6666666666666667" stroke="black" stroke-width="3.3333333333333335" stroke-linecap="round"></line><line x1="167.22222222222223" y1="34.77777777777778" x2="200.33333333333334" y2="34.77777777777778" stroke="black" stroke-width="3.3333333333333335" stroke-linecap="round"></line><line x1="167.22222222222223" y1="34.77777777777778" x2="200.33333333333334" y2="34.77777777777778" stroke="black" stroke-width="3.3333333333333335" stroke-linecap="round"></line><line x1="200.33333333333334" y1="34.77777777777778" x2="200.33333333333334" y2="67.8888888888889" stroke="black" stroke-width="3.3333333333333335" stroke-linecap="round"></line><line x1="167.22222222222223" y1="34.77777777777778" x2="167.22222222222223" y2="67.8888888888889" stroke="black" stroke-width="3.3333333333333335" stroke-linecap="round"></line><line x1="200.33333333333334" y1="67.8888888888889" x2="200.33333333333334" y2="101.00000000000001" stroke="black" stroke-width="3.3333333333333335" stroke-linecap="round"></line><line x1="200.33333333333334" y1="101.00000000000001" x2="200.33333333333334" y2="134.11111111111111" stroke="black" stroke-width="3.3333333333333335" stroke-linecap="round"></line><line x1="167.22222222222223" y1="101.00000000000001" x2="167.22222222222223" y2="134.11111111111111" stroke="black" stroke-width="3.3333333333333335" stroke-linecap="round"></line><line x1="167.22222222222223" y1="167.22222222222223" x2="200.33333333333334" y2="167.22222222222223" stroke="black" stroke-width="3.3333333333333335" stroke-linecap="round"></line><line x1="167.22222222222223" y1="134.11111111111111" x2="167.22222222222223" y2="167.22222222222223" stroke="black" stroke-width="3.3333333333333335" stroke-linecap="round"></line><line x1="167.22222222222223" y1="167.22222222222223" x2="200.33333333333334" y2="167.22222222222223" stroke="black" stroke-width="3.3333333333333335" stroke-linecap="round"></line><line x1="167.22222222222223" y1="200.33333333333334" x2="167.22222222222223" y2="233.44444444444446" stroke="black" stroke-width="3.3333333333333335" stroke-linecap="round"></line><line x1="200.33333333333334" y1="233.44444444444446" x2="200.33333333333334" y2="266.5555555555556" stroke="black" stroke-width="3.3333333333333335" stroke-linecap="round"></line><line x1="167.22222222222223" y1="299.6666666666667" x2="200.33333333333334" y2="299.6666666666667" stroke="black" stroke-width="3.3333333333333335" stroke-linecap="round"></line><line x1="200.33333333333334" y1="266.5555555555556" x2="200.33333333333334" y2="299.6666666666667" stroke="black" stroke-width="3.3333333333333335" stroke-linecap="round"></line><line x1="167.22222222222223" y1="299.6666666666667" x2="200.33333333333334" y2="299.6666666666667" stroke="black" stroke-width="3.3333333333333335" stroke-linecap="round"></line><line x1="167.22222222222223" y1="332.7777777777778" x2="200.33333333333334" y2="332.7777777777778" stroke="black" stroke-width="3.3333333333333335" stroke-linecap="round"></line><line x1="167.22222222222223" y1="299.6666666666667" x2="167.22222222222223" y2="332.7777777777778" stroke="black" stroke-width="3.3333333333333335" stroke-linecap="round"></line><line x1="200.33333333333334" y1="1.6666666666666667" x2="233.44444444444446" y2="1.6666666666666667" stroke="black" stroke-width="3.3333333333333335" stroke-linecap="round"></line><line x1="200.33333333333334" y1="34.77777777777778" x2="233.44444444444446" y2="34.77777777777778" stroke="black" stroke-width="3.3333333333333335" stroke-linecap="round"></line><line x1="233.44444444444446" y1="1.6666666666666667" x2="233.44444444444446" y2="34.77777777777778" stroke="black" stroke-width="3.3333333333333335" stroke-linecap="round"></line><line x1="200.33333333333334" y1="34.77777777777778" x2="233.44444444444446" y2="34.77777777777778" stroke="black" stroke-width="3.3333333333333335" stroke-linecap="round"></line><line x1="200.33333333333334" y1="34.77777777777778" x2="200.33333333333334" y2="67.8888888888889" stroke="black" stroke-width="3.3333333333333335" stroke-linecap="round"></line><line x1="200.33333333333334" y1="67.8888888888889" x2="200.33333333333334" y2="101.00000000000001" stroke="black" stroke-width="3.3333333333333335" stroke-linecap="round"></line><line x1="200.33333333333334" y1="134.11111111111111" x2="233.44444444444446" y2="134.11111111111111" stroke="black" stroke-width="3.3333333333333335" stroke-linecap="round"></line><line x1="200.33333333333334" y1="101.00000000000001" x2="200.33333333333334" y2="134.11111111111111" stroke="black" stroke-width="3.3333333333333335" stroke-linecap="round"></line><line x1="200.33333333333334" y1="134.11111111111111" x2="233.44444444444446" y2="134.11111111111111" stroke="black" stroke-width="3.3333333333333335" stroke-linecap="round"></line><line x1="200.33333333333334" y1="167.22222222222223" x2="233.44444444444446" y2="167.22222222222223" stroke="black" stroke-width="3.3333333333333335" stroke-linecap="round"></line><line x1="233.44444444444446" y1="134.11111111111111" x2="233.44444444444446" y2="167.22222222222223" stroke="black" stroke-width="3.3333333333333335" stroke-linecap="round"></line><line x1="200.33333333333334" y1="167.22222222222223" x2="233.44444444444446" y2="167.22222222222223" stroke="black" stroke-width="3.3333333333333335" stroke-linecap="round"></line><line x1="200.33333333333334" y1="200.33333333333334" x2="233.44444444444446" y2="200.33333333333334" stroke="black" stroke-width="3.3333333333333335" stroke-linecap="round"></line><line x1="233.44444444444446" y1="167.22222222222223" x2="233.44444444444446" y2="200.33333333333334" stroke="black" stroke-width="3.3333333333333335" stroke-linecap="round"></line><line x1="200.33333333333334" y1="200.33333333333334" x2="233.44444444444446" y2="200.33333333333334" stroke="black" stroke-width="3.3333333333333335" stroke-linecap="round"></line><line x1="200.33333333333334" y1="266.5555555555556" x2="233.44444444444446" y2="266.5555555555556" stroke="black" stroke-width="3.3333333333333335" stroke-linecap="round"></line><line x1="200.33333333333334" y1="233.44444444444446" x2="200.33333333333334" y2="266.5555555555556" stroke="black" stroke-width="3.3333333333333335" stroke-linecap="round"></line><line x1="200.33333333333334" y1="266.5555555555556" x2="233.44444444444446" y2="266.5555555555556" stroke="black" stroke-width="3.3333333333333335" stroke-linecap="round"></line><line x1="200.33333333333334" y1="299.6666666666667" x2="233.44444444444446" y2="299.6666666666667" stroke="black" stroke-width="3.3333333333333335" stroke-linecap="round"></line><line x1="200.33333333333334" y1="266.5555555555556" x2="200.33333333333334" y2="299.6666666666667" stroke="black" stroke-width="3.3333333333333335" stroke-linecap="round"></line><line x1="200.33333333333334" y1="299.6666666666667" x2="233.44444444444446" y2="299.6666666666667" stroke="black" stroke-width="3.3333333333333335" stroke-linecap="round"></line><line x1="200.33333333333334" y1="332.7777777777778" x2="233.44444444444446" y2="332.7777777777778" stroke="black" stroke-width="3.3333333333333335" stroke-linecap="round"></line><line x1="233.44444444444446" y1="1.6666666666666667" x2="266.5555555555556" y2="1.6666666666666667" stroke="black" stroke-width="3.3333333333333335" stroke-linecap="round"></line><line x1="266.5555555555556" y1="1.6666666666666667" x2="266.5555555555556" y2="34.77777777777778" stroke="black" stroke-width="3.3333333333333335" stroke-linecap="round"></line><line x1="233.44444444444446" y1="1.6666666666666667" x2="233.44444444444446" y2="34.77777777777778" stroke="black" stroke-width="3.3333333333333335" stroke-linecap="round"></line><line x1="233.44444444444446" y1="67.8888888888889" x2="266.5555555555556" y2="67.8888888888889" stroke="black" stroke-width="3.3333333333333335" stroke-linecap="round"></line><line x1="266.5555555555556" y1="34.77777777777778" x2="266.5555555555556" y2="67.8888888888889" stroke="black" stroke-width="3.3333333333333335" stroke-linecap="round"></line><line x1="233.44444444444446" y1="67.8888888888889" x2="266.5555555555556" y2="67.8888888888889" stroke="black" stroke-width="3.3333333333333335" stroke-linecap="round"></line><line x1="233.44444444444446" y1="101.00000000000001" x2="266.5555555555556" y2="101.00000000000001" stroke="black" stroke-width="3.3333333333333335" stroke-linecap="round"></line><line x1="266.5555555555556" y1="67.8888888888889" x2="266.5555555555556" y2="101.00000000000001" stroke="black" stroke-width="3.3333333333333335" stroke-linecap="round"></line><line x1="233.44444444444446" y1="101.00000000000001" x2="266.5555555555556" y2="101.00000000000001" stroke="black" stroke-width="3.3333333333333335" stroke-linecap="round"></line><line x1="266.5555555555556" y1="134.11111111111111" x2="266.5555555555556" y2="167.22222222222223" stroke="black" stroke-width="3.3333333333333335" stroke-linecap="round"></line><line x1="233.44444444444446" y1="134.11111111111111" x2="233.44444444444446" y2="167.22222222222223" stroke="black" stroke-width="3.3333333333333335" stroke-linecap="round"></line><line x1="233.44444444444446" y1="167.22222222222223" x2="233.44444444444446" y2="200.33333333333334" stroke="black" stroke-width="3.3333333333333335" stroke-linecap="round"></line><line x1="233.44444444444446" y1="233.44444444444446" x2="266.5555555555556" y2="233.44444444444446" stroke="black" stroke-width="3.3333333333333335" stroke-linecap="round"></line><line x1="233.44444444444446" y1="233.44444444444446" x2="266.5555555555556" y2="233.44444444444446" stroke="black" stroke-width="3.3333333333333335" stroke-linecap="round"></line><line x1="266.5555555555556" y1="233.44444444444446" x2="266.5555555555556" y2="266.5555555555556" stroke="black" stroke-width="3.3333333333333335" stroke-linecap="round"></line><line x1="233.44444444444446" y1="332.7777777777778" x2="266.5555555555556" y2="332.7777777777778" stroke="black" stroke-width="3.3333333333333335" stroke-linecap="round"></line><line x1="266.5555555555556" y1="299.6666666666667" x2="266.5555555555556" y2="332.7777777777778" stroke="black" stroke-width="3.3333333333333335" stroke-linecap="round"></line><line x1="266.5555555555556" y1="1.6666666666666667" x2="299.6666666666667" y2="1.6666666666666667" stroke="black" stroke-width="3.3333333333333335" stroke-linecap="round"></line><line x1="266.5555555555556" y1="34.77777777777778" x2="299.6666666666667" y2="34.77777777777778" stroke="black" stroke-width="3.3333333333333335" stroke-linecap="round"></line><line x1="266.5555555555556" y1="1.6666666666666667" x2="266.5555555555556" y2="34.77777777777778" stroke="black" stroke-width="3.3333333333333335" stroke-linecap="round"></line><line x1="266.5555555555556" y1="34.77777777777778" x2="299.6666666666667" y2="34.77777777777778" stroke="black" stroke-width="3.3333333333333335" stroke-linecap="round"></line><line x1="266.5555555555556" y1="34.77777777777778" x2="266.5555555555556" y2="67.8888888888889" stroke="black" stroke-width="3.3333333333333335" stroke-linecap="round"></line><line x1="266.5555555555556" y1="101.00000000000001" x2="299.6666666666667" y2="101.00000000000001" stroke="black" stroke-width="3.3333333333333335" stroke-linecap="round"></line><line x1="266.5555555555556" y1="67.8888888888889" x2="266.5555555555556" y2="101.00000000000001" stroke="black" stroke-width="3.3333333333333335" stroke-linecap="round"></line><line x1="266.5555555555556" y1="101.00000000000001" x2="299.6666666666667" y2="101.00000000000001" stroke="black" stroke-width="3.3333333333333335" stroke-linecap="round"></line><line x1="299.6666666666667" y1="101.00000000000001" x2="299.6666666666667" y2="134.11111111111111" stroke="black" stroke-width="3.3333333333333335" stroke-linecap="round"></line><line x1="266.5555555555556" y1="167.22222222222223" x2="299.6666666666667" y2="167.22222222222223" stroke="black" stroke-width="3.3333333333333335" stroke-linecap="round"></line><line x1="299.6666666666667" y1="134.11111111111111" x2="299.6666666666667" y2="167.22222222222223" stroke="black" stroke-width="3.3333333333333335" stroke-linecap="round"></line><line x1="266.5555555555556" y1="134.11111111111111" x2="266.5555555555556" y2="167.22222222222223" stroke="black" stroke-width="3.3333333333333335" stroke-linecap="round"></line><line x1="266.5555555555556" y1="167.22222222222223" x2="299.6666666666667" y2="167.22222222222223" stroke="black" stroke-width="3.3333333333333335" stroke-linecap="round"></line><line x1="266.5555555555556" y1="200.33333333333334" x2="299.6666666666667" y2="200.33333333333334" stroke="black" stroke-width="3.3333333333333335" stroke-linecap="round"></line><line x1="266.5555555555556" y1="200.33333333333334" x2="299.6666666666667" y2="200.33333333333334" stroke="black" stroke-width="3.3333333333333335" stroke-linecap="round"></line><line x1="266.5555555555556" y1="233.44444444444446" x2="299.6666666666667" y2="233.44444444444446" stroke="black" stroke-width="3.3333333333333335" stroke-linecap="round"></line><line x1="299.6666666666667" y1="200.33333333333334" x2="299.6666666666667" y2="233.44444444444446" stroke="black" stroke-width="3.3333333333333335" stroke-linecap="round"></line><line x1="266.5555555555556" y1="233.44444444444446" x2="299.6666666666667" y2="233.44444444444446" stroke="black" stroke-width="3.3333333333333335" stroke-linecap="round"></line><line x1="266.5555555555556" y1="233.44444444444446" x2="266.5555555555556" y2="266.5555555555556" stroke="black" stroke-width="3.3333333333333335" stroke-linecap="round"></line><line x1="266.5555555555556" y1="332.7777777777778" x2="299.6666666666667" y2="332.7777777777778" stroke="black" stroke-width="3.3333333333333335" stroke-linecap="round"></line><line x1="299.6666666666667" y1="299.6666666666667" x2="299.6666666666667" y2="332.7777777777778" stroke="black" stroke-width="3.3333333333333335" stroke-linecap="round"></line><line x1="266.5555555555556" y1="299.6666666666667" x2="266.5555555555556" y2="332.7777777777778" stroke="black" stroke-width="3.3333333333333335" stroke-linecap="round"></line><line x1="299.6666666666667" y1="1.6666666666666667" x2="332.7777777777778" y2="1.6666666666666667" stroke="black" stroke-width="3.3333333333333335" stroke-linecap="round"></line><line x1="299.6666666666667" y1="67.8888888888889" x2="332.7777777777778" y2="67.8888888888889" stroke="black" stroke-width="3.3333333333333335" stroke-linecap="round"></line><line x1="332.7777777777778" y1="34.77777777777778" x2="332.7777777777778" y2="67.8888888888889" stroke="black" stroke-width="3.3333333333333335" stroke-linecap="round"></line><line x1="299.6666666666667" y1="67.8888888888889" x2="332.7777777777778" y2="67.8888888888889" stroke="black" stroke-width="3.3333333333333335" stroke-linecap="round"></line><line x1="332.7777777777778" y1="67.8888888888889" x2="332.7777777777778" y2="101.00000000000001" stroke="black" stroke-width="3.3333333333333335" stroke-linecap="round"></line><line x1="299.6666666666667" y1="101.00000000000001" x2="299.6666666666667" y2="134.11111111111111" stroke="black" stroke-width="3.3333333333333335" stroke-linecap="round"></line><line x1="332.7777777777778" y1="134.11111111111111" x2="332.7777777777778" y2="167.22222222222223" stroke="black" stroke-width="3.3333333333333335" stroke-linecap="round"></line><line x1="299.6666666666667" y1="134.11111111111111" x2="299.6666666666667" y2="167.22222222222223" stroke="black" stroke-width="3.3333333333333335" stroke-linecap="round"></line><line x1="299.6666666666667" y1="200.33333333333334" x2="332.7777777777778" y2="200.33333333333334" stroke="black" stroke-width="3.3333333333333335" stroke-linecap="round"></line><line x1="299.6666666666667" y1="200.33333333333334" x2="332.7777777777778" y2="200.33333333333334" stroke="black" stroke-width="3.3333333333333335" stroke-linecap="round"></line><line x1="299.6666666666667" y1="233.44444444444446" x2="332.7777777777778" y2="233.44444444444446" stroke="black" stroke-width="3.3333333333333335" stroke-linecap="round"></line><line x1="299.6666666666667" y1="200.33333333333334" x2="299.6666666666667" y2="233.44444444444446" stroke="black" stroke-width="3.3333333333333335" stroke-linecap="round"></line><line x1="299.6666666666667" y1="233.44444444444446" x2="332.7777777777778" y2="233.44444444444446" stroke="black" stroke-width="3.3333333333333335" stroke-linecap="round"></line><line x1="299.6666666666667" y1="266.5555555555556" x2="332.7777777777778" y2="266.5555555555556" stroke="black" stroke-width="3.3333333333333335" stroke-linecap="round"></line><line x1="332.7777777777778" y1="233.44444444444446" x2="332.7777777777778" y2="266.5555555555556" stroke="black" stroke-width="3.3333333333333335" stroke-linecap="round"></line><line x1="299.6666666666667" y1="266.5555555555556" x2="332.7777777777778" y2="266.5555555555556" stroke="black" stroke-width="3.3333333333333335" stroke-linecap="round"></line><line x1="299.6666666666667" y1="332.7777777777778" x2="332.7777777777778" y2="332.7777777777778" stroke="black" stroke-width="3.3333333333333335" stroke-linecap="round"></line><line x1="332.7777777777778" y1="299.6666666666667" x2="332.7777777777778" y2="332.7777777777778" stroke="black" stroke-width="3.3333333333333335" stroke-linecap="round"></line><line x1="299.6666666666667" y1="299.6666666666667" x2="299.6666666666667" y2="332.7777777777778" stroke="black" stroke-width="3.3333333333333335" stroke-linecap="round"></line><line x1="332.7777777777778" y1="1.6666666666666667" x2="365.88888888888897" y2="1.6666666666666667" stroke="black" stroke-width="3.3333333333333335" stroke-linecap="round"></line><line x1="332.7777777777778" y1="34.77777777777778" x2="365.88888888888897" y2="34.77777777777778" stroke="black" stroke-width="3.3333333333333335" stroke-linecap="round"></line><line x1="365.88888888888897" y1="1.6666666666666667" x2="365.88888888888897" y2="34.77777777777778" stroke="black" stroke-width="3.3333333333333335" stroke-linecap="round"></line><line x1="332.7777777777778" y1="34.77777777777778" x2="365.88888888888897" y2="34.77777777777778" stroke="black" stroke-width="3.3333333333333335" stroke-linecap="round"></line><line x1="332.7777777777778" y1="67.8888888888889" x2="365.88888888888897" y2="67.8888888888889" stroke="black" stroke-width="3.3333333333333335" stroke-linecap="round"></line><line x1="332.7777777777778" y1="34.77777777777778" x2="332.7777777777778" y2="67.8888888888889" stroke="black" stroke-width="3.3333333333333335" stroke-linecap="round"></line><line x1="332.7777777777778" y1="67.8888888888889" x2="365.88888888888897" y2="67.8888888888889" stroke="black" stroke-width="3.3333333333333335" stroke-linecap="round"></line><line x1="332.7777777777778" y1="101.00000000000001" x2="365.88888888888897" y2="101.00000000000001" stroke="black" stroke-width="3.3333333333333335" stroke-linecap="round"></line><line x1="332.7777777777778" y1="67.8888888888889" x2="332.7777777777778" y2="101.00000000000001" stroke="black" stroke-width="3.3333333333333335" stroke-linecap="round"></line><line x1="332.7777777777778" y1="101.00000000000001" x2="365.88888888888897" y2="101.00000000000001" stroke="black" stroke-width="3.3333333333333335" stroke-linecap="round"></line><line x1="332.7777777777778" y1="134.11111111111111" x2="365.88888888888897" y2="134.11111111111111" stroke="black" stroke-width="3.3333333333333335" stroke-linecap="round"></line><line x1="332.7777777777778" y1="134.11111111111111" x2="365.88888888888897" y2="134.11111111111111" stroke="black" stroke-width="3.3333333333333335" stroke-linecap="round"></line><line x1="332.7777777777778" y1="167.22222222222223" x2="365.88888888888897" y2="167.22222222222223" stroke="black" stroke-width="3.3333333333333335" stroke-linecap="round"></line><line x1="332.7777777777778" y1="134.11111111111111" x2="332.7777777777778" y2="167.22222222222223" stroke="black" stroke-width="3.3333333333333335" stroke-linecap="round"></line><line x1="332.7777777777778" y1="167.22222222222223" x2="365.88888888888897" y2="167.22222222222223" stroke="black" stroke-width="3.3333333333333335" stroke-linecap="round"></line><line x1="332.7777777777778" y1="200.33333333333334" x2="365.88888888888897" y2="200.33333333333334" stroke="black" stroke-width="3.3333333333333335" stroke-linecap="round"></line><line x1="365.88888888888897" y1="167.22222222222223" x2="365.88888888888897" y2="200.33333333333334" stroke="black" stroke-width="3.3333333333333335" stroke-linecap="round"></line><line x1="332.7777777777778" y1="200.33333333333334" x2="365.88888888888897" y2="200.33333333333334" stroke="black" stroke-width="3.3333333333333335" stroke-linecap="round"></line><line x1="332.7777777777778" y1="266.5555555555556" x2="365.88888888888897" y2="266.5555555555556" stroke="black" stroke-width="3.3333333333333335" stroke-linecap="round"></line><line x1="365.88888888888897" y1="233.44444444444446" x2="365.88888888888897" y2="266.5555555555556" stroke="black" stroke-width="3.3333333333333335" stroke-linecap="round"></line><line x1="332.7777777777778" y1="233.44444444444446" x2="332.7777777777778" y2="266.5555555555556" stroke="black" stroke-width="3.3333333333333335" stroke-linecap="round"></line><line x1="332.7777777777778" y1="266.5555555555556" x2="365.88888888888897" y2="266.5555555555556" stroke="black" stroke-width="3.3333333333333335" stroke-linecap="round"></line><line x1="332.7777777777778" y1="299.6666666666667" x2="365.88888888888897" y2="299.6666666666667" stroke="black" stroke-width="3.3333333333333335" stroke-linecap="round"></line><line x1="365.88888888888897" y1="266.5555555555556" x2="365.88888888888897" y2="299.6666666666667" stroke="black" stroke-width="3.3333333333333335" stroke-linecap="round"></line><line x1="332.7777777777778" y1="299.6666666666667" x2="365.88888888888897" y2="299.6666666666667" stroke="black" stroke-width="3.3333333333333335" stroke-linecap="round"></line><line x1="332.7777777777778" y1="299.6666666666667" x2="332.7777777777778" y2="332.7777777777778" stroke="black" stroke-width="3.3333333333333335" stroke-linecap="round"></line><line x1="365.88888888888897" y1="1.6666666666666667" x2="399.00000000000006" y2="1.6666666666666667" stroke="black" stroke-width="3.3333333333333335" stroke-linecap="round"></line><line x1="365.88888888888897" y1="34.77777777777778" x2="399.00000000000006" y2="34.77777777777778" stroke="black" stroke-width="3.3333333333333335" stroke-linecap="round"></line><line x1="365.88888888888897" y1="1.6666666666666667" x2="365.88888888888897" y2="34.77777777777778" stroke="black" stroke-width="3.3333333333333335" stroke-linecap="round"></line><line x1="365.88888888888897" y1="34.77777777777778" x2="399.00000000000006" y2="34.77777777777778" stroke="black" stroke-width="3.3333333333333335" stroke-linecap="round"></line><line x1="399.00000000000006" y1="34.77777777777778" x2="399.00000000000006" y2="67.8888888888889" stroke="black" stroke-width="3.3333333333333335" stroke-linecap="round"></line><line x1="399.00000000000006" y1="67.8888888888889" x2="399.00000000000006" y2="101.00000000000001" stroke="black" stroke-width="3.3333333333333335" stroke-linecap="round"></line><line x1="399.00000000000006" y1="101.00000000000001" x2="399.00000000000006" y2="134.11111111111111" stroke="black" stroke-width="3.3333333333333335" stroke-linecap="round"></line><line x1="399.00000000000006" y1="167.22222222222223" x2="399.00000000000006" y2="200.33333333333334" stroke="black" stroke-width="3.3333333333333335" stroke-linecap="round"></line><line x1="365.88888888888897" y1="167.22222222222223" x2="365.88888888888897" y2="200.33333333333334" stroke="black" stroke-width="3.3333333333333335" stroke-linecap="round"></line><line x1="365.88888888888897" y1="266.5555555555556" x2="399.00000000000006" y2="266.5555555555556" stroke="black" stroke-width="3.3333333333333335" stroke-linecap="round"></line><line x1="365.88888888888897" y1="233.44444444444446" x2="365.88888888888897" y2="266.5555555555556" stroke="black" stroke-width="3.3333333333333335" stroke-linecap="round"></line><line x1="365.88888888888897" y1="266.5555555555556" x2="399.00000000000006" y2="266.5555555555556" stroke="black" stroke-width="3.3333333333333335" stroke-linecap="round"></line><line x1="365.88888888888897" y1="299.6666666666667" x2="399.00000000000006" y2="299.6666666666667" stroke="black" stroke-width="3.3333333333333335" stroke-linecap="round"></line><line x1="365.88888888888897" y1="266.5555555555556" x2="365.88888888888897" y2="299.6666666666667" stroke="black" stroke-width="3.3333333333333335" stroke-linecap="round"></line><line x1="365.88888888888897" y1="299.6666666666667" x2="399.00000000000006" y2="299.6666666666667" stroke="black" stroke-width="3.3333333333333335" stroke-linecap="round"></line><line x1="365.88888888888897" y1="332.7777777777778" x2="399.00000000000006" y2="332.7777777777778" stroke="black" stroke-width="3.3333333333333335" stroke-linecap="round"></line><line x1="399.00000000000006" y1="1.6666666666666667" x2="432.11111111111114" y2="1.6666666666666667" stroke="black" stroke-width="3.3333333333333335" stroke-linecap="round"></line><line x1="432.11111111111114" y1="34.77777777777778" x2="432.11111111111114" y2="67.8888888888889" stroke="black" stroke-width="3.3333333333333335" stroke-linecap="round"></line><line x1="399.00000000000006" y1="34.77777777777778" x2="399.00000000000006" y2="67.8888888888889" stroke="black" stroke-width="3.3333333333333335" stroke-linecap="round"></line><line x1="399.00000000000006" y1="67.8888888888889" x2="399.00000000000006" y2="101.00000000000001" stroke="black" stroke-width="3.3333333333333335" stroke-linecap="round"></line><line x1="399.00000000000006" y1="101.00000000000001" x2="399.00000000000006" y2="134.11111111111111" stroke="black" stroke-width="3.3333333333333335" stroke-linecap="round"></line><line x1="399.00000000000006" y1="167.22222222222223" x2="432.11111111111114" y2="167.22222222222223" stroke="black" stroke-width="3.3333333333333335" stroke-linecap="round"></line><line x1="399.00000000000006" y1="167.22222222222223" x2="432.11111111111114" y2="167.22222222222223" stroke="black" stroke-width="3.3333333333333335" stroke-linecap="round"></line><line x1="399.00000000000006" y1="167.22222222222223" x2="399.00000000000006" y2="200.33333333333334" stroke="black" stroke-width="3.3333333333333335" stroke-linecap="round"></line><line x1="399.00000000000006" y1="233.44444444444446" x2="432.11111111111114" y2="233.44444444444446" stroke="black" stroke-width="3.3333333333333335" stroke-linecap="round"></line><line x1="432.11111111111114" y1="200.33333333333334" x2="432.11111111111114" y2="233.44444444444446" stroke="black" stroke-width="3.3333333333333335" stroke-linecap="round"></line><line x1="399.00000000000006" y1="233.44444444444446" x2="432.11111111111114" y2="233.44444444444446" stroke="black" stroke-width="3.3333333333333335" stroke-linecap="round"></line><line x1="399.00000000000006" y1="266.5555555555556" x2="432.11111111111114" y2="266.5555555555556" stroke="black" stroke-width="3.3333333333333335" stroke-linecap="round"></line><line x1="432.11111111111114" y1="233.44444444444446" x2="432.11111111111114" y2="266.5555555555556" stroke="black" stroke-width="3.3333333333333335" stroke-linecap="round"></line><line x1="399.00000000000006" y1="266.5555555555556" x2="432.11111111111114" y2="266.5555555555556" stroke="black" stroke-width="3.3333333333333335" stroke-linecap="round"></line><line x1="399.00000000000006" y1="299.6666666666667" x2="432.11111111111114" y2="299.6666666666667" stroke="black" stroke-width="3.3333333333333335" stroke-linecap="round"></line><line x1="399.00000000000006" y1="299.6666666666667" x2="432.11111111111114" y2="299.6666666666667" stroke="black" stroke-width="3.3333333333333335" stroke-linecap="round"></line><line x1="399.00000000000006" y1="332.7777777777778" x2="432.11111111111114" y2="332.7777777777778" stroke="black" stroke-width="3.3333333333333335" stroke-linecap="round"></line><line x1="432.11111111111114" y1="1.6666666666666667" x2="465.2222222222223" y2="1.6666666666666667" stroke="black" stroke-width="3.3333333333333335" stroke-linecap="round"></line><line x1="465.2222222222223" y1="1.6666666666666667" x2="465.2222222222223" y2="34.77777777777778" stroke="black" stroke-width="3.3333333333333335" stroke-linecap="round"></line><line x1="432.11111111111114" y1="67.8888888888889" x2="465.2222222222223" y2="67.8888888888889" stroke="black" stroke-width="3.3333333333333335" stroke-linecap="round"></line><line x1="432.11111111111114" y1="34.77777777777778" x2="432.11111111111114" y2="67.8888888888889" stroke="black" stroke-width="3.3333333333333335" stroke-linecap="round"></line><line x1="432.11111111111114" y1="67.8888888888889" x2="465.2222222222223" y2="67.8888888888889" stroke="black" stroke-width="3.3333333333333335" stroke-linecap="round"></line><line x1="432.11111111111114" y1="101.00000000000001" x2="465.2222222222223" y2="101.00000000000001" stroke="black" stroke-width="3.3333333333333335" stroke-linecap="round"></line><line x1="432.11111111111114" y1="101.00000000000001" x2="465.2222222222223" y2="101.00000000000001" stroke="black" stroke-width="3.3333333333333335" stroke-linecap="round"></line><line x1="432.11111111111114" y1="134.11111111111111" x2="465.2222222222223" y2="134.11111111111111" stroke="black" stroke-width="3.3333333333333335" stroke-linecap="round"></line><line x1="432.11111111111114" y1="134.11111111111111" x2="465.2222222222223" y2="134.11111111111111" stroke="black" stroke-width="3.3333333333333335" stroke-linecap="round"></line><line x1="432.11111111111114" y1="167.22222222222223" x2="465.2222222222223" y2="167.22222222222223" stroke="black" stroke-width="3.3333333333333335" stroke-linecap="round"></line><line x1="465.2222222222223" y1="134.11111111111111" x2="465.2222222222223" y2="167.22222222222223" stroke="black" stroke-width="3.3333333333333335" stroke-linecap="round"></line><line x1="432.11111111111114" y1="167.22222222222223" x2="465.2222222222223" y2="167.22222222222223" stroke="black" stroke-width="3.3333333333333335" stroke-linecap="round"></line><line x1="465.2222222222223" y1="200.33333333333334" x2="465.2222222222223" y2="233.44444444444446" stroke="black" stroke-width="3.3333333333333335" stroke-linecap="round"></line><line x1="432.11111111111114" y1="200.33333333333334" x2="432.11111111111114" y2="233.44444444444446" stroke="black" stroke-width="3.3333333333333335" stroke-linecap="round"></line><line x1="432.11111111111114" y1="266.5555555555556" x2="465.2222222222223" y2="266.5555555555556" stroke="black" stroke-width="3.3333333333333335" stroke-linecap="round"></line><line x1="432.11111111111114" y1="233.44444444444446" x2="432.11111111111114" y2="266.5555555555556" stroke="black" stroke-width="3.3333333333333335" stroke-linecap="round"></line><line x1="432.11111111111114" y1="266.5555555555556" x2="465.2222222222223" y2="266.5555555555556" stroke="black" stroke-width="3.3333333333333335" stroke-linecap="round"></line><line x1="432.11111111111114" y1="332.7777777777778" x2="465.2222222222223" y2="332.7777777777778" stroke="black" stroke-width="3.3333333333333335" stroke-linecap="round"></line><line x1="465.2222222222223" y1="1.6666666666666667" x2="498.3333333333334" y2="1.6666666666666667" stroke="black" stroke-width="3.3333333333333335" stroke-linecap="round"></line><line x1="498.3333333333334" y1="1.6666666666666667" x2="498.3333333333334" y2="34.77777777777778" stroke="black" stroke-width="3.3333333333333335" stroke-linecap="round"></line><line x1="465.2222222222223" y1="1.6666666666666667" x2="465.2222222222223" y2="34.77777777777778" stroke="black" stroke-width="3.3333333333333335" stroke-linecap="round"></line><line x1="465.2222222222223" y1="67.8888888888889" x2="498.3333333333334" y2="67.8888888888889" stroke="black" stroke-width="3.3333333333333335" stroke-linecap="round"></line><line x1="498.3333333333334" y1="34.77777777777778" x2="498.3333333333334" y2="67.8888888888889" stroke="black" stroke-width="3.3333333333333335" stroke-linecap="round"></line><line x1="465.2222222222223" y1="67.8888888888889" x2="498.3333333333334" y2="67.8888888888889" stroke="black" stroke-width="3.3333333333333335" stroke-linecap="round"></line><line x1="465.2222222222223" y1="101.00000000000001" x2="498.3333333333334" y2="101.00000000000001" stroke="black" stroke-width="3.3333333333333335" stroke-linecap="round"></line><line x1="498.3333333333334" y1="67.8888888888889" x2="498.3333333333334" y2="101.00000000000001" stroke="black" stroke-width="3.3333333333333335" stroke-linecap="round"></line><line x1="465.2222222222223" y1="101.00000000000001" x2="498.3333333333334" y2="101.00000000000001" stroke="black" stroke-width="3.3333333333333335" stroke-linecap="round"></line><line x1="465.2222222222223" y1="134.11111111111111" x2="498.3333333333334" y2="134.11111111111111" stroke="black" stroke-width="3.3333333333333335" stroke-linecap="round"></line><line x1="498.3333333333334" y1="101.00000000000001" x2="498.3333333333334" y2="134.11111111111111" stroke="black" stroke-width="3.3333333333333335" stroke-linecap="round"></line><line x1="465.2222222222223" y1="134.11111111111111" x2="498.3333333333334" y2="134.11111111111111" stroke="black" stroke-width="3.3333333333333335" stroke-linecap="round"></line><line x1="498.3333333333334" y1="134.11111111111111" x2="498.3333333333334" y2="167.22222222222223" stroke="black" stroke-width="3.3333333333333335" stroke-linecap="round"></line><line x1="465.2222222222223" y1="134.11111111111111" x2="465.2222222222223" y2="167.22222222222223" stroke="black" stroke-width="3.3333333333333335" stroke-linecap="round"></line><line x1="465.2222222222223" y1="200.33333333333334" x2="498.3333333333334" y2="200.33333333333334" stroke="black" stroke-width="3.3333333333333335" stroke-linecap="round"></line><line x1="498.3333333333334" y1="167.22222222222223" x2="498.3333333333334" y2="200.33333333333334" stroke="black" stroke-width="3.3333333333333335" stroke-linecap="round"></line><line x1="465.2222222222223" y1="200.33333333333334" x2="498.3333333333334" y2="200.33333333333334" stroke="black" stroke-width="3.3333333333333335" stroke-linecap="round"></line><line x1="498.3333333333334" y1="200.33333333333334" x2="498.3333333333334" y2="233.44444444444446" stroke="black" stroke-width="3.3333333333333335" stroke-linecap="round"></line><line x1="465.2222222222223" y1="200.33333333333334" x2="465.2222222222223" y2="233.44444444444446" stroke="black" stroke-width="3.3333333333333335" stroke-linecap="round"></line><line x1="498.3333333333334" y1="233.44444444444446" x2="498.3333333333334" y2="266.5555555555556" stroke="black" stroke-width="3.3333333333333335" stroke-linecap="round"></line><line x1="465.2222222222223" y1="299.6666666666667" x2="498.3333333333334" y2="299.6666666666667" stroke="black" stroke-width="3.3333333333333335" stroke-linecap="round"></line><line x1="498.3333333333334" y1="266.5555555555556" x2="498.3333333333334" y2="299.6666666666667" stroke="black" stroke-width="3.3333333333333335" stroke-linecap="round"></line><line x1="465.2222222222223" y1="299.6666666666667" x2="498.3333333333334" y2="299.6666666666667" stroke="black" stroke-width="3.3333333333333335" stroke-linecap="round"></line><line x1="465.2222222222223" y1="332.7777777777778" x2="498.3333333333334" y2="332.7777777777778" stroke="black" stroke-width="3.3333333333333335" stroke-linecap="round"></line><line x1="498.3333333333334" y1="299.6666666666667" x2="498.3333333333334" y2="332.7777777777778" stroke="black" stroke-width="3.3333333333333335" stroke-linecap="round"></line><line x1="349.33333333333337" y1="415.5555555555556" x2="349.33333333333337" y2="382.4444444444445" stroke="#006BB7" stroke-width="3.3333333333333335" stroke-linecap="round"></line><line x1="349.33333333333337" y1="382.4444444444445" x2="349.33333333333337" y2="349.33333333333337" stroke="#006BB7" stroke-width="3.3333333333333335" stroke-linecap="round"></line><line x1="349.33333333333337" y1="349.33333333333337" x2="349.33333333333337" y2="316.2222222222223" stroke="#006BB7" stroke-width="3.3333333333333335" stroke-linecap="round"></line><line x1="349.33333333333337" y1="316.2222222222223" x2="382.4444444444445" y2="316.2222222222223" stroke="#006BB7" stroke-width="3.3333333333333335" stroke-linecap="round"></line><line x1="382.4444444444445" y1="316.2222222222223" x2="415.5555555555556" y2="316.2222222222223" stroke="#006BB7" stroke-width="3.3333333333333335" stroke-linecap="round"></line><line x1="415.5555555555556" y1="316.2222222222223" x2="448.66666666666674" y2="316.2222222222223" stroke="#006BB7" stroke-width="3.3333333333333335" stroke-linecap="round"></line><line x1="448.66666666666674" y1="316.2222222222223" x2="448.66666666666674" y2="283.11111111111114" stroke="#006BB7" stroke-width="3.3333333333333335" stroke-linecap="round"></line><line x1="448.66666666666674" y1="283.11111111111114" x2="481.7777777777778" y2="283.11111111111114" stroke="#006BB7" stroke-width="3.3333333333333335" stroke-linecap="round"></line><line x1="481.7777777777778" y1="283.11111111111114" x2="481.7777777777778" y2="250.00000000000003" stroke="#006BB7" stroke-width="3.3333333333333335" stroke-linecap="round"></line><line x1="481.7777777777778" y1="250.00000000000003" x2="448.66666666666674" y2="250.00000000000003" stroke="#006BB7" stroke-width="3.3333333333333335" stroke-linecap="round"></line><line x1="448.66666666666674" y1="250.00000000000003" x2="448.66666666666674" y2="216.88888888888889" stroke="#006BB7" stroke-width="3.3333333333333335" stroke-linecap="round"></line><line x1="448.66666666666674" y1="216.88888888888889" x2="448.66666666666674" y2="183.7777777777778" stroke="#006BB7" stroke-width="3.3333333333333335" stroke-linecap="round"></line><line x1="448.66666666666674" y1="183.7777777777778" x2="415.5555555555556" y2="183.7777777777778" stroke="#006BB7" stroke-width="3.3333333333333335" stroke-linecap="round"></line><line x1="415.5555555555556" y1="183.7777777777778" x2="415.5555555555556" y2="216.88888888888889" stroke="#006BB7" stroke-width="3.3333333333333335" stroke-linecap="round"></line><line x1="415.5555555555556" y1="216.88888888888889" x2="382.4444444444445" y2="216.88888888888889" stroke="#006BB7" stroke-width="3.3333333333333335" stroke-linecap="round"></line><line x1="382.4444444444445" y1="216.88888888888889" x2="382.4444444444445" y2="183.7777777777778" stroke="#006BB7" stroke-width="3.3333333333333335" stroke-linecap="round"></line><line x1="382.4444444444445" y1="183.7777777777778" x2="382.4444444444445" y2="150.66666666666666" stroke="#006BB7" stroke-width="3.3333333333333335" stroke-linecap="round"></line><line x1="382.4444444444445" y1="150.66666666666666" x2="382.4444444444445" y2="117.55555555555557" stroke="#006BB7" stroke-width="3.3333333333333335" stroke-linecap="round"></line><line x1="382.4444444444445" y1="117.55555555555557" x2="349.33333333333337" y2="117.55555555555557" stroke="#006BB7" stroke-width="3.3333333333333335" stroke-linecap="round"></line><line x1="349.33333333333337" y1="117.55555555555557" x2="316.2222222222223" y2="117.55555555555557" stroke="#006BB7" stroke-width="3.3333333333333335" stroke-linecap="round"></line><line x1="316.2222222222223" y1="117.55555555555557" x2="316.2222222222223" y2="150.66666666666666" stroke="#006BB7" stroke-width="3.3333333333333335" stroke-linecap="round"></line><line x1="316.2222222222223" y1="150.66666666666666" x2="316.2222222222223" y2="183.7777777777778" stroke="#006BB7" stroke-width="3.3333333333333335" stroke-linecap="round"></line><line x1="316.2222222222223" y1="183.7777777777778" x2="283.11111111111114" y2="183.7777777777778" stroke="#006BB7" stroke-width="3.3333333333333335" stroke-linecap="round"></line><line x1="283.11111111111114" y1="183.7777777777778" x2="250.00000000000003" y2="183.7777777777778" stroke="#006BB7" stroke-width="3.3333333333333335" stroke-linecap="round"></line><line x1="250.00000000000003" y1="183.7777777777778" x2="250.00000000000003" y2="216.88888888888889" stroke="#006BB7" stroke-width="3.3333333333333335" stroke-linecap="round"></line><line x1="250.00000000000003" y1="216.88888888888889" x2="216.88888888888889" y2="216.88888888888889" stroke="#006BB7" stroke-width="3.3333333333333335" stroke-linecap="round"></line><line x1="216.88888888888889" y1="216.88888888888889" x2="183.7777777777778" y2="216.88888888888889" stroke="#006BB7" stroke-width="3.3333333333333335" stroke-linecap="round"></line><line x1="183.7777777777778" y1="216.88888888888889" x2="183.7777777777778" y2="183.7777777777778" stroke="#006BB7" stroke-width="3.3333333333333335" stroke-linecap="round"></line><line x1="183.7777777777778" y1="183.7777777777778" x2="150.66666666666666" y2="183.7777777777778" stroke="#006BB7" stroke-width="3.3333333333333335" stroke-linecap="round"></line><line x1="150.66666666666666" y1="183.7777777777778" x2="117.55555555555557" y2="183.7777777777778" stroke="#006BB7" stroke-width="3.3333333333333335" stroke-linecap="round"></line><line x1="117.55555555555557" y1="183.7777777777778" x2="84.44444444444446" y2="183.7777777777778" stroke="#006BB7" stroke-width="3.3333333333333335" stroke-linecap="round"></line><line x1="84.44444444444446" y1="183.7777777777778" x2="84.44444444444446" y2="150.66666666666666" stroke="#006BB7" stroke-width="3.3333333333333335" stroke-linecap="round"></line><line x1="84.44444444444446" y1="150.66666666666666" x2="51.333333333333336" y2="150.66666666666666" stroke="#006BB7" stroke-width="3.3333333333333335" stroke-linecap="round"></line><line x1="51.333333333333336" y1="150.66666666666666" x2="51.333333333333336" y2="117.55555555555557" stroke="#006BB7" stroke-width="3.3333333333333335" stroke-linecap="round"></line><line x1="51.333333333333336" y1="117.55555555555557" x2="51.333333333333336" y2="84.44444444444446" stroke="#006BB7" stroke-width="3.3333333333333335" stroke-linecap="round"></line><line x1="51.333333333333336" y1="84.44444444444446" x2="18.222222222222225" y2="84.44444444444446" stroke="#006BB7" stroke-width="3.3333333333333335" stroke-linecap="round"></line><line x1="18.222222222222225" y1="84.44444444444446" x2="18.222222222222225" y2="51.333333333333336" stroke="#006BB7" stroke-width="3.3333333333333335" stroke-linecap="round"></line><line x1="18.222222222222225" y1="51.333333333333336" x2="51.333333333333336" y2="51.333333333333336" stroke="#006BB7" stroke-width="3.3333333333333335" stroke-linecap="round"></line><line x1="51.333333333333336" y1="51.333333333333336" x2="84.44444444444446" y2="51.333333333333336" stroke="#006BB7" stroke-width="3.3333333333333335" stroke-linecap="round"></line><line x1="84.44444444444446" y1="51.333333333333336" x2="84.44444444444446" y2="18.222222222222225" stroke="#006BB7" stroke-width="3.3333333333333335" stroke-linecap="round"></line><line x1="84.44444444444446" y1="18.222222222222225" x2="51.333333333333336" y2="18.222222222222225" stroke="#006BB7" stroke-width="3.3333333333333335" stroke-linecap="round"></line><line x1="51.333333333333336" y1="18.222222222222225" x2="51.333333333333336" y2="-14.888888888888891" stroke="#006BB7" stroke-width="3.3333333333333335" stroke-linecap="round"></line><line x1="51.333333333333336" y1="-14.888888888888891" x2="51.333333333333336" y2="-48.00000000000001" stroke="#006BB7" stroke-width="3.3333333333333335" stroke-linecap="round"></line><line x1="51.333333333333336" y1="-48.00000000000001" x2="51.333333333333336" y2="-81.11111111111111" stroke="#006BB7" stroke-width="3.3333333333333335" stroke-linecap="round"></line></svg>